<svg width="40" height="39" viewBox="0 0 40 39" fill="none" xmlns="http://www.w3.org/2000/svg">
<path fill-rule="evenodd" clip-rule="evenodd" d="M23.8758 25.0993C19.5691 28.5486 13.265 28.2772 9.27273 24.2849C4.98917 20.0013 4.98917 13.0563 9.27273 8.77273C13.5563 4.48917 20.5013 4.48917 24.7849 8.77273C28.7772 12.765 29.0486 19.0691 25.5993 23.3758L33.9772 31.7537C34.4532 32.2296 34.4532 33.0013 33.9772 33.4772C33.5013 33.9532 32.7296 33.9532 32.2537 33.4772L23.8758 25.0993ZM10.9963 22.5613C7.66464 19.2297 7.66464 13.828 10.9963 10.4963C14.328 7.16464 19.7297 7.16464 23.0613 10.4963C26.3905 13.8255 26.393 19.2217 23.0686 22.554C23.0662 22.5564 23.0637 22.5588 23.0613 22.5613C23.0588 22.5637 23.0564 22.5662 23.054 22.5686C19.7217 25.893 14.3255 25.8905 10.9963 22.5613Z" fill="white"/>
</svg>
